<svg width="169" height="44" viewBox="0 0 169 44" fill="none" xmlns="http://www.w3.org/2000/svg">
<path fill-rule="evenodd" clip-rule="evenodd" d="M54.3294 10.0826C45.3943 10.0826 38.9532 16.6826 38.9532 26.5826C38.9532 36.4826 46.2062 43.0826 55.1413 43.0826C60.5393 43.0826 65.2982 40.6626 68.2429 36.5838L62.0525 32.5314C60.4169 34.5576 57.9326 35.7412 55.1394 35.7412C51.2643 35.7412 47.9699 33.4488 46.7482 29.7836H69.4259C69.6124 28.7267 69.7074 27.6516 69.7095 26.5738C69.7095 16.6826 63.2665 10.0826 54.3314 10.0826H54.3294ZM46.6763 23.375C47.6863 19.7186 50.4543 17.4174 54.3236 17.4174C58.1987 17.4174 60.9666 19.7186 61.9709 23.375H46.6763ZM141.482 10.0826C132.547 10.0826 126.104 16.6826 126.104 26.5826C126.104 36.4826 133.355 43.0826 142.29 43.0826C147.69 43.0826 152.449 40.6626 155.393 36.5838L149.201 32.5314C147.567 34.5576 145.083 35.7412 142.29 35.7412C138.413 35.7412 135.118 33.4488 133.899 29.7836H156.574C156.753 28.7562 156.858 27.6936 156.858 26.5738C156.858 16.6826 150.415 10.0826 141.482 10.0826ZM133.833 23.375C134.843 19.7186 137.612 17.4174 141.482 17.4174C145.357 17.4174 148.125 19.7186 149.129 23.375H133.833ZM102.243 26.5826C102.243 32.0826 105.417 35.75 110.337 35.75C113.672 35.75 116.172 34.034 117.46 31.24L123.676 35.3012C121.102 40.1588 116.277 43.0826 110.337 43.0826C101.394 43.0826 94.9609 36.4826 94.9609 26.5826C94.9609 16.6826 101.402 10.0826 110.337 10.0826C116.277 10.0826 121.094 13.0086 123.676 17.8662L117.46 21.9274C116.172 19.1312 113.672 17.4174 110.337 17.4174C105.425 17.4174 102.243 21.0826 102.243 26.5826ZM169 0V42.1674H161.716V0H169ZM44.8543 0L22.4271 44L0 0H8.41067L22.4271 27.5L36.4436 0H44.8543ZM92.5329 11V19.8814C91.6924 19.5929 90.8199 19.4418 89.9417 19.4326C85.241 19.4326 81.8496 23.1 81.8496 28.6V42.1674H74.5655V11H81.8496V19.4326C81.8496 14.7774 86.6318 11 92.5329 11Z" fill="black"/>
</svg>
