<svg width="11" height="11" viewBox="0 0 11 11" fill="none" xmlns="http://www.w3.org/2000/svg">
<path d="M8.11035 0.034584H2.88868C1.74035 0.034584 0.797852 0.977084 0.797852 2.12542V9.7575C0.797852 10.7325 1.4966 11.1442 2.35244 10.6729L4.99577 9.205C5.27744 9.04792 5.73244 9.04792 6.00869 9.205L8.65202 10.6729C9.50785 11.1496 10.2066 10.7379 10.2066 9.7575V2.12542C10.2012 0.977084 9.2641 0.034584 8.11035 0.034584ZM7.46035 3.89125L5.29369 6.05792C5.21244 6.13917 5.10952 6.17708 5.0066 6.17708C4.90369 6.17708 4.80077 6.13917 4.71952 6.05792L3.90702 5.24542C3.74994 5.08833 3.74994 4.82833 3.90702 4.67125C4.0641 4.51417 4.3241 4.51417 4.48119 4.67125L5.0066 5.19667L6.88619 3.31708C7.04327 3.16 7.30327 3.16 7.46035 3.31708C7.61744 3.47417 7.61744 3.73417 7.46035 3.89125Z" fill="white"/>
</svg>
