<svg width="31" height="31" viewBox="0 0 31 31" fill="none" xmlns="http://www.w3.org/2000/svg">
<path d="M21.9597 0.083374H9.04058C3.42891 0.083374 0.0834961 3.42879 0.0834961 9.04046V21.9442C0.0834961 27.5713 3.42891 30.9167 9.04058 30.9167H21.9443C27.556 30.9167 30.9014 27.5713 30.9014 21.9596V9.04046C30.9168 3.42879 27.5714 0.083374 21.9597 0.083374ZM25.5672 16.3171L18.9535 22.9309C18.7222 23.1621 18.4293 23.27 18.1364 23.27C17.8435 23.27 17.5506 23.1621 17.3193 22.9309C16.8722 22.4838 16.8722 21.7438 17.3193 21.2967L21.9597 16.6563H6.25016C5.61808 16.6563 5.09391 16.1321 5.09391 15.5C5.09391 14.868 5.61808 14.3438 6.25016 14.3438H21.9597L17.3193 9.70337C16.8722 9.25629 16.8722 8.51629 17.3193 8.06921C17.7664 7.62212 18.5064 7.62212 18.9535 8.06921L25.5672 14.683C25.7831 14.8988 25.9064 15.1917 25.9064 15.5C25.9064 15.8084 25.7831 16.1013 25.5672 16.3171Z" fill="white"/>
</svg>
