<svg width="18" height="18" viewBox="0 0 18 18" fill="none" xmlns="http://www.w3.org/2000/svg">
<path d="M15.9526 6.88473C15.7351 6.53973 15.5026 6.21723 15.2626 5.91723C14.9851 5.56473 14.4601 5.53473 14.1451 5.84973L11.8951 8.09973C12.0601 8.59473 12.0901 9.16473 11.9401 9.75723C11.6776 10.8147 10.8226 11.6697 9.76508 11.9322C9.17258 12.0822 8.60258 12.0522 8.10758 11.8872C8.10758 11.8872 7.03508 12.9597 6.26258 13.7322C5.88758 14.1072 6.00758 14.7672 6.51008 14.9622C7.31258 15.2697 8.14508 15.4272 9.00008 15.4272C10.3351 15.4272 11.6326 15.0372 12.8176 14.3097C14.0251 13.5597 15.1126 12.4572 15.9901 11.0547C16.7026 9.92223 16.6651 8.01723 15.9526 6.88473Z" fill="white"/>
<path d="M10.5155 7.48547L7.48547 10.5155C7.10297 10.1255 6.85547 9.58547 6.85547 9.00047C6.85547 7.82297 7.81547 6.85547 9.00047 6.85547C9.58547 6.85547 10.1255 7.10297 10.5155 7.48547Z" fill="white"/>
<path d="M13.6875 4.31227L11.145 6.85477C10.5975 6.29977 9.84 5.96977 9 5.96977C7.32 5.96977 5.97 7.32727 5.97 8.99977C5.97 9.83977 6.3075 10.5973 6.855 11.1448L4.32 13.6873H4.3125C3.48 13.0123 2.715 12.1498 2.0625 11.1298C1.3125 9.95227 1.3125 8.03977 2.0625 6.86227C2.9325 5.49727 3.9975 4.42477 5.1825 3.68977C6.3675 2.96977 7.665 2.57227 9 2.57227C10.6725 2.57227 12.2925 3.18727 13.6875 4.31227Z" fill="white"/>
<path d="M11.1446 8.99957C11.1446 10.1771 10.1846 11.1446 8.99957 11.1446C8.95457 11.1446 8.91707 11.1446 8.87207 11.1296L11.1296 8.87207C11.1446 8.91707 11.1446 8.95457 11.1446 8.99957Z" fill="white"/>
<path d="M16.3277 1.67266C16.1027 1.44766 15.7352 1.44766 15.5102 1.67266L1.67266 15.5177C1.44766 15.7427 1.44766 16.1102 1.67266 16.3352C1.78516 16.4402 1.92766 16.5002 2.07766 16.5002C2.22766 16.5002 2.37016 16.4402 2.48266 16.3277L16.3277 2.48266C16.5602 2.25766 16.5602 1.89766 16.3277 1.67266Z" fill="white"/>
</svg>
