<svg width="17" height="16" viewBox="0 0 17 16" fill="none" xmlns="http://www.w3.org/2000/svg">
<path d="M14.5678 4.95541C15.0589 5.45521 14.5986 6.16668 13.8979 6.16668H2.41699C1.86471 6.16668 1.41699 5.71896 1.41699 5.16668V4.28001C1.41699 2.65334 2.81949 1.33334 4.54783 1.33334H6.19116C7.34574 1.33334 7.70699 1.68668 8.16741 2.26668L9.15908 3.50668C9.37866 3.78001 9.40699 3.81334 9.81783 3.81334H11.7941C12.8897 3.81334 13.8774 4.25274 14.5678 4.95541Z" fill="white" fill-opacity="0.65"/>
<path d="M14.5731 7.16649C15.124 7.16648 15.5711 7.612 15.5731 8.16288L15.5837 11.1C15.5837 13.0667 13.8837 14.6667 11.7941 14.6667H5.20658C3.11699 14.6667 1.41699 13.0667 1.41699 11.1V8.16664C1.41699 7.61436 1.8647 7.16665 2.41698 7.16664L14.5731 7.16649Z" fill="white" fill-opacity="0.65"/>
</svg>
