<svg width="19" height="19" viewBox="0 0 19 19" fill="none" xmlns="http://www.w3.org/2000/svg">
<path d="M16.3714 11.0121V11.0042C15.6747 10.2679 14.701 9.81668 13.6164 9.81668C11.5185 9.81668 9.81641 11.5188 9.81641 13.6167C9.81641 14.5904 10.1885 15.4771 10.7902 16.15C11.4868 16.9258 12.4922 17.4167 13.6164 17.4167C15.7143 17.4167 17.4164 15.7146 17.4164 13.6167C17.4164 12.6113 17.0206 11.6929 16.3714 11.0121ZM15.0335 14.2579H14.2102V15.1208C14.2102 15.4454 13.941 15.7146 13.6164 15.7146C13.2918 15.7146 13.0227 15.4454 13.0227 15.1208V14.2579H12.1993C11.8668 14.2579 11.6056 13.9967 11.6056 13.6642C11.6056 13.3396 11.8589 13.0783 12.1914 13.0704H13.0227V12.2788C13.0227 12.2629 13.0227 12.2471 13.0306 12.2313C13.0464 11.9304 13.3077 11.685 13.6164 11.685C13.9331 11.685 14.1943 11.9383 14.2102 12.255V13.0704H15.0335C15.366 13.0704 15.6272 13.3396 15.6272 13.6642C15.6272 13.9967 15.366 14.2579 15.0335 14.2579Z" fill="white" fill-opacity="0.3"/>
<path d="M17.4163 6.91126C17.4163 7.85334 17.2659 8.72417 17.0047 9.53167C16.9572 9.69792 16.7593 9.74542 16.6168 9.64251C15.7538 9.00126 14.7009 8.66084 13.6163 8.66084C10.8693 8.66084 8.62884 10.9013 8.62884 13.6483C8.62884 14.5033 8.85051 15.3425 9.27009 16.0867C9.39676 16.3083 9.24634 16.5933 9.00884 16.5063C7.10092 15.8571 3.24551 13.49 1.99467 9.53167C1.73342 8.72417 1.58301 7.85334 1.58301 6.91126C1.58301 4.46501 3.55426 2.48584 5.98467 2.48584C7.41759 2.48584 8.70009 3.18251 9.49967 4.25126C10.2993 3.18251 11.5818 2.48584 13.0147 2.48584C15.4451 2.48584 17.4163 4.46501 17.4163 6.91126Z" fill="white" fill-opacity="0.3"/>
</svg>
