<?xml version="1.0" encoding="UTF-8"?>
<svg id="Layer_1" data-name="Layer 1" xmlns="http://www.w3.org/2000/svg" viewBox="0 0 1300 1300">
  <defs>
    <style>
      .cls-1 {
        fill: #010124;
      }

      .cls-1, .cls-2 {
        stroke-width: 0px;
      }

      .cls-2 {
        fill: #fff;
      }
    </style>
  </defs>
  <rect class="cls-1" width="1300" height="1300"/>
  <path class="cls-2" d="M1092.93,516.63c-7.52-15.61-27.51-16.05-34.07-16.2-11.03-.24-25.24,1.23-43.47,4.5-29.02,5.19-68.03,14.99-115.94,29.12-45.84,13.52-90.73,28.29-121.67,38.79,4.41-13.38,6.66-27.49,6.66-41.98,0-44.49-21.67-85.54-58.18-110.67l-61.45-106.3c-3.03-5.24-8.63-8.48-14.68-8.48s-11.66,3.24-14.68,8.48l-61.46,106.3c-36.51,25.12-58.17,66.18-58.17,110.67,0,14.55,2.28,28.71,6.72,42.14-99.1-33.39-174.37-55.49-224.1-65.79-47.56-9.86-81.32-11.96-91.51,9.78-4.04,8.61-2.77,18.09,3.76,28.17,3.74,5.78,9.05,11.8,15.77,19.42,16.19,18.37,40.66,46.13,60.01,91.47,9.8,22.93,11.82,34.96,14.18,48.89,2.35,13.87,5,29.59,15.63,56.08,32.57,81.09,86.34,132.27,115.49,155.56,47.31,37.79,93.08,55.44,116.16,62.6,32.98,10.23,67.19,15.42,101.67,15.42.17,0,.36,0,.53,0h.03c.6,0,1.21,0,1.82,0,38.5-.27,96.76-7.52,158.99-39.8,26.07-13.52,76.31-44.64,119.82-101.14,36.46-47.34,53.46-93.61,60.35-116.97,4.47-15.14,7.92-30.72,10.25-46.35,1.4-4.54,7.11-22.63,14.93-39.85,14.83-32.71,36.65-58.91,52.58-78.04,18.72-22.48,32.25-38.72,24.02-55.8ZM652.72,960.63c-.87.02-1.74.03-2.62.03-55.35-.02-100.36-45.05-100.36-100.39,0-22.54,7.29-43.83,21.07-61.56l.15-.17c5.08-6.5,10.93-12.36,17.39-17.4.55-.43,1.07-.88,1.56-1.38l.02-.02c6.63-6.62,6.62-17.36,0-23.98-6.18-6.18-15.95-6.59-22.62-1.22-8.5,6.66-16.22,14.36-22.91,22.91l-.17.2c-18.57,23.79-28.39,52.36-28.39,82.62s10.3,58.9,27.63,81.52c-22.59-8.46-56.02-24.17-90.52-51.73-26.55-21.2-75.5-67.81-105.18-141.7-9.27-23.1-11.41-35.72-13.67-49.08-2.48-14.71-5.05-29.93-16.43-56.56-21.51-50.34-48.14-80.57-65.76-100.57-2.31-2.62-4.85-5.5-7.11-8.18,10.12.11,29.36,2.12,65.02,10.5,54.49,12.79,134.67,37.39,238.39,73.12l17.74,17.77,72.11,72.26,70.91,71.06.05.05c.54.54,1.13,1.05,1.74,1.51,7.4,5.6,14,12.21,19.59,19.64.07.09.14.17.2.26.16.21.32.43.47.65,12.77,17.32,19.52,37.87,19.52,59.49,0,54.49-43.64,98.99-97.8,100.36ZM1042.84,550.72c-17.16,20.62-40.68,48.85-57.4,85.73-9.98,22.01-16.62,44.41-16.9,45.36-.22.77-.4,1.54-.51,2.34-2.11,14.47-5.28,28.91-9.41,42.94-6.22,21.09-21.59,62.89-54.69,105.86-39.52,51.32-84.99,79.5-108.56,91.73-12.28,6.37-25.08,11.95-38.23,16.69,17.14-22.54,27.31-50.65,27.31-81.08s-9.29-57.23-26.89-80.63c-.12-.16-.23-.32-.36-.47-.06-.07-.11-.14-.16-.2-.36-.45-.75-.87-1.16-1.29l-23.69-23.74-70.14-70.3-72.11-72.26-19.72-19.76c-13.39-17.59-20.47-38.57-20.47-60.77,0-34.31,17.24-65.9,46.13-84.49,2.27-1.46,4.16-3.44,5.51-5.78l48.75-84.33,48.75,84.33c1.35,2.34,3.24,4.31,5.51,5.78,28.88,18.59,46.13,50.18,46.13,84.49,0,22.22-7.09,43.24-20.52,60.83l-19.77,19.77c-6.63,6.62-6.63,17.36,0,23.99.91.91,1.9,1.7,2.94,2.35.39.25.78.47,1.17.69,2.46,1.29,5.18,1.94,7.89,1.94s5.42-.65,7.88-1.94c.49-.26.98-.55,1.44-.86.94-.62,1.84-1.34,2.67-2.17l17.83-17.82c15.44-5.46,77.38-27.11,144.19-47.22,101.89-30.67,143.51-35.97,159.89-36.11-3.75,4.99-8.83,11.09-13.29,16.44Z"/>
</svg>