<svg width="20" height="20" viewBox="0 0 20 20" fill="none" xmlns="http://www.w3.org/2000/svg">
<path d="M10.565 16.6309C10.794 16.6841 10.8149 16.984 10.592 17.0583V17.0583L9.27528 17.4917C5.96695 18.5583 4.22528 17.6667 3.15028 14.3583L2.08362 11.0667C1.01695 7.75833 1.90028 6.00833 5.20862 4.94166L5.47595 4.85313C5.87881 4.71972 6.2744 5.12508 6.16549 5.53525C6.13481 5.6508 6.10481 5.7696 6.07528 5.89166L5.25862 9.38333C4.34195 13.3083 5.68362 15.475 9.60862 16.4083L10.565 16.6309Z" fill="#FF4500" fill-opacity="0.69"/>
<path d="M14.3088 2.67499L12.9171 2.34999C10.1338 1.69165 8.47548 2.23332 7.50048 4.24999C7.25048 4.75832 7.05048 5.37499 6.88381 6.08332L6.06714 9.57499C5.25048 13.0583 6.32548 14.775 9.80048 15.6L11.2005 15.9333C11.6838 16.05 12.1338 16.125 12.5505 16.1583C15.1505 16.4083 16.5338 15.1917 17.2338 12.1833L18.0505 8.69999C18.8671 5.21665 17.8005 3.49165 14.3088 2.67499ZM12.7421 11.1083C12.6671 11.3917 12.4171 11.575 12.1338 11.575C12.0838 11.575 12.0338 11.5667 11.9755 11.5583L9.55048 10.9417C9.21714 10.8583 9.01714 10.5167 9.10048 10.1833C9.18381 9.84999 9.52548 9.64999 9.85881 9.73332L12.2838 10.35C12.6255 10.4333 12.8255 10.775 12.7421 11.1083ZM15.1838 8.29165C15.1088 8.57499 14.8588 8.75832 14.5755 8.75832C14.5255 8.75832 14.4755 8.74999 14.4171 8.74165L10.3755 7.71665C10.0421 7.63332 9.84214 7.29165 9.92548 6.95832C10.0088 6.62499 10.3505 6.42499 10.6838 6.50832L14.7255 7.53332C15.0671 7.60832 15.2671 7.94999 15.1838 8.29165Z" fill="#FF4500" fill-opacity="0.69"/>
</svg>
