<svg width="19" height="19" viewBox="0 0 19 19" fill="none" xmlns="http://www.w3.org/2000/svg">
<path d="M17.4166 4.04543V13.0388C17.4166 14.1867 16.5933 14.6696 15.5879 14.1154L14.06 13.2604C13.9333 13.1892 13.8541 13.0546 13.8541 12.9121V7.11709C13.8541 5.10626 12.2154 3.46751 10.2045 3.46751H6.98246C6.68954 3.46751 6.48371 3.15876 6.61829 2.90543C7.02996 2.12168 7.85329 1.58334 8.79537 1.58334H14.9545C16.3083 1.58334 17.4166 2.69168 17.4166 4.04543Z" fill="white" fill-opacity="0.28"/>
<path d="M10.2043 4.655H4.04509C2.69134 4.655 1.58301 5.76333 1.58301 7.11708V16.1104C1.58301 17.2583 2.40634 17.7412 3.41176 17.1871L6.52301 15.4533C6.85551 15.2712 7.39384 15.2712 7.72634 15.4533L10.8376 17.1871C11.843 17.7412 12.6663 17.2583 12.6663 16.1104V7.11708C12.6663 5.76333 11.558 4.655 10.2043 4.655ZM8.70801 10.0937H7.71842V11.0833C7.71842 11.4079 7.44926 11.6771 7.12467 11.6771C6.80009 11.6771 6.53092 11.4079 6.53092 11.0833V10.0937H5.54134C5.21676 10.0937 4.94759 9.82458 4.94759 9.5C4.94759 9.17542 5.21676 8.90625 5.54134 8.90625H6.53092V7.91667C6.53092 7.59208 6.80009 7.32292 7.12467 7.32292C7.44926 7.32292 7.71842 7.59208 7.71842 7.91667V8.90625H8.70801C9.03259 8.90625 9.30176 9.17542 9.30176 9.5C9.30176 9.82458 9.03259 10.0937 8.70801 10.0937Z" fill="white" fill-opacity="0.28"/>
</svg>
