<svg width="13" height="13" viewBox="0 0 13 13" fill="none" xmlns="http://www.w3.org/2000/svg">
<path d="M5.96391 10.8442C8.65929 10.8442 10.8443 8.65913 10.8443 5.96375C10.8443 3.26837 8.65929 1.08334 5.96391 1.08334C3.26853 1.08334 1.0835 3.26837 1.0835 5.96375C1.0835 8.65913 3.26853 10.8442 5.96391 10.8442Z" fill="#AEC2D9"/>
<path d="M11.9114 10.2646C11.7326 9.93417 11.3534 9.75 10.8443 9.75C10.4597 9.75 10.1293 9.90708 9.93428 10.1779C9.73928 10.4488 9.69594 10.8117 9.81511 11.1746C10.048 11.8788 10.4543 12.0358 10.6764 12.0629C10.7089 12.0683 10.7414 12.0683 10.7793 12.0683C11.0176 12.0683 11.3859 11.9654 11.7434 11.4292C12.0305 11.0121 12.0847 10.595 11.9114 10.2646Z" fill="#AEC2D9"/>
</svg>
