<svg width="24" height="24" viewBox="0 0 24 24" fill="none" xmlns="http://www.w3.org/2000/svg">
<path d="M16.8301 15.64C17.5001 15.2 18.3801 15.68 18.3801 16.48V17.77C18.3801 19.04 17.3901 20.4 16.2001 20.8L13.0101 21.86C12.4501 22.05 11.5401 22.05 10.9901 21.86L7.80012 20.8C6.60012 20.4 5.62012 19.04 5.62012 17.77V16.47C5.62012 15.68 6.50012 15.2 7.16012 15.63L9.22012 16.97C10.0101 17.5 11.0101 17.76 12.0101 17.76C13.0101 17.76 14.0101 17.5 14.8001 16.97L16.8301 15.64Z" fill="white" fill-opacity="0.65"/>
<path d="M19.9795 6.46L13.9895 2.53C12.9095 1.82 11.1295 1.82 10.0495 2.53L4.02953 6.46C2.09953 7.71 2.09953 10.54 4.02953 11.8L5.62953 12.84L10.0495 15.72C11.1295 16.43 12.9095 16.43 13.9895 15.72L18.3795 12.84L19.7495 11.94V15C19.7495 15.41 20.0895 15.75 20.4995 15.75C20.9095 15.75 21.2495 15.41 21.2495 15V10.08C21.6495 8.79 21.2395 7.29 19.9795 6.46Z" fill="white" fill-opacity="0.65"/>
</svg>
